<svg width="193" height="110" viewBox="0 0 193 110" fill="none" xmlns="http://www.w3.org/2000/svg">
<g id="Group 791">
<g id="Group 786">
<path id="Line 23 (Stroke)" fill-rule="evenodd" clip-rule="evenodd" d="M102.842 62.6004L106.959 54.8127L104.127 53.3155L100.01 61.1032C99.5966 61.8852 99.8954 62.8543 100.677 63.2677C101.459 63.6812 102.429 63.3824 102.842 62.6004Z" fill="#47A47D"/>
<path id="Line 23 (Stroke)_2" fill-rule="evenodd" clip-rule="evenodd" d="M48.8492 86.2703L48.486 55.2579L43.2323 55.3194L43.5955 86.3318C43.632 89.446 44.8376 91.9567 46.2884 91.9397C47.7392 91.9227 48.8857 89.3844 48.8492 86.2703Z" fill="#47A47D"/>
<g id="Group 785">
<g id="Group 783">
<path id="Vector 128" d="M61.4024 32.9134C63.675 31.6144 68.2441 28.2957 68.3394 25.413C68.4347 22.5304 66.7566 21.4099 65.9057 21.21C65.4144 20.5067 63.911 19.2889 61.8279 20.0446C60.8283 19.1521 58.5174 17.4598 57.2702 17.8308C55.0373 17.9282 50.212 19.657 48.7742 25.7933L43.3246 19.4328L40.3429 16.2388C38.8237 15.5014 35.3536 14.6312 33.6271 17.0491C32.2678 16.6622 29.0148 16.4885 26.8772 18.8889C24.7397 21.2893 25.8505 24.0048 26.6731 25.0625C26.9873 25.9339 29.4389 28.561 36.7313 32.0977C32.8249 30.9369 24.4844 29.01 22.374 30.5893C21.683 30.7382 19.9723 31.6435 18.657 34.0736C17.3418 36.5036 18.6922 38.1973 19.5318 38.7404C19.1494 39.9301 18.6829 42.6287 19.8756 43.9049C21.0683 45.1811 22.7371 45.5455 23.4224 45.5681L32.674 45.874C30.744 47.1844 26.8636 50.4228 26.7819 52.8936C26.3996 54.0834 26.029 56.9913 27.6057 59.1047C29.1823 61.2181 32.3404 61.1507 33.7224 60.8529L36.7552 62.4991C38.1088 63.0592 41.251 63.4723 42.991 60.644C44.7311 57.8158 45.8627 56.7882 46.2111 56.628L48.1989 58.755L50.6837 61.4137C51.6946 61.9624 53.8466 62.2397 54.3667 58.9589C58.2845 59.7755 65.2699 59.1133 61.8688 49.9312C66.4083 47.5068 72.6703 40.709 61.4024 32.9134Z" fill="#726DA8"/>
<path id="Vector 128 (Stroke)" fill-rule="evenodd" clip-rule="evenodd" d="M66.615 20.1775C67.971 20.7096 69.6432 22.3335 69.5401 25.4527C69.5063 26.4738 69.0845 27.4358 68.5431 28.2715C67.9959 29.1164 67.272 29.916 66.5103 30.6322C65.5529 31.5325 64.4888 32.3444 63.5329 32.9935C68.2027 36.6817 69.5438 40.3791 68.7306 43.7205C67.9894 46.7665 65.5351 49.0885 63.3249 50.4743C63.9497 52.4578 64.1145 54.1349 63.8652 55.5401C63.5687 57.2113 62.7002 58.4105 61.5302 59.1931C60.3963 59.9515 59.0399 60.2812 57.7643 60.3816C56.9126 60.4486 56.0598 60.4165 55.2694 60.3221C54.8504 61.5568 54.1185 62.3786 53.1293 62.7478C51.9593 63.1845 50.7937 62.8402 50.1107 62.4694L49.9393 62.3764L46.1338 58.3045C46.1012 58.3413 46.0674 58.3798 46.0325 58.4202C45.5398 58.9913 44.859 59.9004 44.0142 61.2735C42.9349 63.0278 41.3825 63.8032 39.9108 64.0295C38.4864 64.2485 37.14 63.9583 36.296 63.6091L36.2377 63.585L33.5193 62.1094C32.713 62.2293 31.6315 62.2659 30.5229 62.065C29.1867 61.8228 27.6759 61.2076 26.6429 59.823C25.6687 58.5171 25.3238 57.0061 25.2595 55.7124C25.1997 54.5095 25.3776 53.4121 25.5913 52.6798C25.6591 51.8359 26.009 51.0273 26.4374 50.3179C26.903 49.5466 27.5183 48.7992 28.1652 48.1201C28.5483 47.718 28.9515 47.3305 29.3558 46.9662L23.3827 46.7687C22.481 46.7389 20.4696 46.2997 18.998 44.7251C18.0757 43.7382 17.8952 42.3453 17.912 41.2715C17.9238 40.5162 18.0356 39.7755 18.1745 39.163C17.7716 38.7466 17.3907 38.192 17.1525 37.5113C16.7576 36.3824 16.7895 35.0005 17.6007 33.5018C18.9458 31.0165 20.7429 29.8286 21.8696 29.4813C22.7132 28.9609 23.8649 28.8163 24.9338 28.7945C26.1703 28.7692 27.6083 28.9087 29.059 29.1282C29.1007 29.1345 29.1424 29.1409 29.1842 29.1474C28.8847 28.9347 28.6074 28.7292 28.3511 28.5313C27.529 27.8963 26.9108 27.3296 26.4655 26.8428C26.1057 26.4496 25.8046 26.0506 25.6247 25.6663C25.1233 24.9733 24.6007 23.881 24.4701 22.6011C24.3262 21.1904 24.6647 19.5673 25.9802 18.0901C28.1983 15.5991 31.3429 15.4382 33.1766 15.7262C34.3029 14.5963 35.7699 14.2519 37.0699 14.2595C38.5628 14.2683 39.9873 14.7309 40.8675 15.1581L41.0686 15.2557L44.2202 18.6317L48.2879 23.3793C50.3495 18.4014 54.7182 16.7911 57.0885 16.6377C57.6671 16.509 58.2434 16.6053 58.7083 16.7427C59.2358 16.8985 59.7611 17.1498 60.2358 17.4197C60.9286 17.8137 61.5929 18.2933 62.1135 18.7131C64.2302 18.2507 65.8334 19.3074 66.615 20.1775ZM67.1389 25.3733C67.215 23.0715 65.9331 22.4504 65.631 22.3794L65.1839 22.2744L64.9209 21.8979C64.6219 21.4698 63.6374 20.6661 62.2376 21.1738L61.5631 21.4185L61.0279 20.9406C60.5743 20.5356 59.8153 19.9444 59.0481 19.5081C58.6642 19.2897 58.3155 19.1317 58.0277 19.0467C57.7482 18.9642 57.6273 18.9804 57.6137 18.9822L57.6128 18.9822L57.4707 19.0245L57.3226 19.0309C55.4955 19.1106 51.2311 20.5736 49.9439 26.0673L49.4034 28.3738L42.4291 20.2338L39.6258 17.2309C38.977 16.9477 38.0096 16.6676 37.0557 16.662C36.0235 16.6559 35.1663 16.9608 34.6048 17.7471L34.1127 18.4362L33.2983 18.2044C32.1481 17.8771 29.4715 17.782 27.7744 19.6878C26.9524 20.6109 26.7774 21.5458 26.8602 22.3573C26.9476 23.2141 27.3287 23.9487 27.6214 24.325L27.7385 24.4756L27.8032 24.655C27.8032 24.655 27.8033 24.6551 27.8044 24.6571C27.8161 24.6796 27.9131 24.8659 28.2381 25.2212C28.5688 25.5826 29.0782 26.0572 29.8197 26.6299C31.3019 27.7747 33.6627 29.2744 37.2556 31.0168L36.3892 33.2492C34.4722 32.6795 31.4666 31.9225 28.6995 31.5037C27.3129 31.2938 26.0259 31.1751 24.9829 31.1965C23.8664 31.2193 23.2934 31.4017 23.0938 31.551L22.8837 31.7083L22.6272 31.7635C22.3396 31.8255 20.8937 32.4649 19.7135 34.6454C19.2095 35.5767 19.2589 36.2567 19.4203 36.7179C19.5992 37.2293 19.9583 37.5856 20.1843 37.7317L20.9571 38.2316L20.6755 39.1079C20.5133 39.6126 20.3274 40.4661 20.3142 41.309C20.3003 42.2009 20.4829 42.7953 20.7533 43.0847C21.6671 44.0625 22.9933 44.352 23.4621 44.3675L36.4013 44.7954L33.3488 46.8678C32.4377 47.4864 31.0548 48.57 29.9047 49.7772C29.3301 50.3804 28.8393 50.9878 28.4941 51.5596C28.1409 52.1445 27.9935 52.6046 27.9826 52.9333L27.9771 53.1012L27.9257 53.2612C27.777 53.7239 27.6098 54.6037 27.659 55.5932C27.708 56.5792 27.9662 57.5789 28.5686 58.3864C29.1123 59.1152 29.9688 59.5229 30.9513 59.701C31.9357 59.8794 32.9108 59.799 33.4693 59.6786L33.9044 59.5848L37.268 61.4106C37.7856 61.613 38.657 61.7915 39.5457 61.6549C40.4186 61.5207 41.3072 61.0885 41.968 60.0146C42.8633 58.5594 43.6183 57.5406 44.2135 56.8508C44.5108 56.5062 44.7754 56.2353 45.0048 56.0301C45.2128 55.844 45.4561 55.6531 45.7091 55.5367L46.4968 55.1743L51.4087 60.4301C51.706 60.5525 52.0437 60.5886 52.2893 60.497C52.4725 60.4286 52.9608 60.1555 53.1803 58.7708L53.3777 57.5257L54.6119 57.7829C55.499 57.9678 56.5548 58.0669 57.5758 57.9865C58.6056 57.9055 59.5176 57.6489 60.1945 57.1961C60.8355 56.7674 61.3205 56.1304 61.4996 55.1205C61.6867 54.0659 61.5507 52.5308 60.7424 50.3485L60.3783 49.3655L61.3029 48.8716C63.4472 47.7264 65.7902 45.6428 66.3963 43.1525C66.9535 40.8627 66.1492 37.6581 60.719 33.9013L59.1512 32.8166L60.8063 31.8705C61.8808 31.2563 63.5101 30.1556 64.8646 28.8819C65.5412 28.2457 66.1195 27.594 66.5267 26.9653C66.9399 26.3274 67.125 25.7936 67.1389 25.3733Z" fill="#726DA8"/>
<path id="Vector 134" d="M54.7764 35.4756C54.6697 35.6536 54.6319 36.1423 54.6258 36.3281C55.9 35.9496 57.6278 36.0569 58.9512 36.267C61.5778 36.6838 62.696 39.9113 61.8625 42.2018C61.5472 43.0683 61.0978 43.8905 60.7979 44.7615C60.6055 45.3206 60.0741 45.6852 59.7746 46.2112C59.2363 47.1568 59.3003 48.073 59.2652 49.134C59.2384 49.945 59.2664 50.7827 59.0034 51.5615C58.8329 52.0668 58.8234 52.539 58.4848 52.978C57.8663 53.7797 56.8754 54.351 55.8785 54.0078C55.455 53.862 55.168 53.4943 54.7029 53.479C54.4338 53.4701 53.9329 53.3389 53.7117 53.546C53.423 53.8162 53.2964 54.089 53.1648 54.4443C52.8944 55.1741 52.082 55.8346 51.5324 56.3411C50.9889 56.8419 50.3169 56.2192 49.897 55.8301L49.8804 55.8146C49.474 55.4383 49.1038 55.0792 48.79 54.6263C48.4646 54.1565 48.1611 53.6322 47.78 53.2047C47.2244 52.5813 46.5193 51.4069 45.5391 51.5519C44.6094 51.6893 43.5451 52.5515 43.1961 53.4024C42.7934 54.384 42.4529 55.2981 41.9187 56.2228C41.6525 56.6836 41.3739 57.2758 40.8947 57.559C40.1169 58.0185 38.5326 57.6615 38.0591 56.88C37.5018 55.9605 36.8061 56.3985 35.9165 56.3691C34.9996 56.3388 34.355 56.027 33.6405 55.5045C32.7077 54.8223 32.4132 53.1152 32.5922 52.0855C32.6855 51.5487 32.6865 50.9794 32.8815 50.471C33.0122 50.1303 33.1523 49.8028 33.2867 49.4682C33.4632 49.0285 33.9262 48.7297 34.3296 48.5228C34.8408 48.2605 35.353 47.8661 35.8362 47.5473C36.2454 47.2774 36.7339 47.0833 37.0662 46.7079C37.2963 46.4478 38.3224 45.579 38.1467 45.174C38.057 44.9672 37.5962 45.0013 37.4287 44.937C37.0109 44.7767 36.6409 44.6807 36.2058 44.6017C35.0336 44.3889 33.8475 44.182 32.7012 43.8507C31.4557 43.4907 30.2133 43.0965 28.9738 42.7022C28.0563 42.4103 27.1509 41.9654 26.3723 41.3913C25.6984 40.8944 25.8244 39.8363 26.3152 39.2753C26.6616 38.8794 27.189 38.7817 27.2087 38.1843C27.2257 37.67 27.1495 37.1897 26.6798 36.8921C26.4026 36.7164 26.1126 36.3127 26.0742 36.001C26.034 35.6747 26.0233 35.1848 26.2147 34.9078C26.3072 34.7738 26.3243 34.4869 26.4888 34.436C27.0924 34.2491 28.1467 34.26 28.7371 34.4922C29.1405 34.6508 29.6282 34.6221 30.0544 34.7172C30.5641 34.8309 31.0243 34.9761 31.5559 34.9937L34.003 35.0746C34.7709 35.1 35.4766 35.0604 36.1781 34.7382C36.976 34.3717 37.3515 33.948 37.8063 33.2405C38.2842 32.4973 38.523 31.8726 38.553 30.9652C38.5738 30.3348 38.557 29.8027 38.2012 29.2568C37.7787 28.6087 37.4718 27.9884 36.835 27.4923C36.2302 27.0211 35.6841 26.4686 35.0933 25.9739C34.3773 25.3744 33.4663 24.5414 33.3444 23.5752C33.2834 23.0928 33.257 22.2889 33.7231 21.9999C34.2108 21.6976 35.0197 21.6551 35.5764 21.6529C35.8662 21.6518 36.1657 21.5456 36.4485 21.4821C36.6052 21.447 36.7976 21.492 36.9443 21.4441C37.0775 21.4006 37.1783 21.2695 37.3237 21.2207C37.5511 21.1445 37.9324 20.8448 38.1529 20.8399C38.3586 20.8352 38.5682 20.8536 38.7737 20.8604C39.7998 20.8943 40.3558 21.4914 41.1361 22.1316C43.0466 23.6993 44.146 25.9321 45.7578 27.7873C46.3577 28.4777 46.9814 29.1831 47.7214 29.7304C48.328 30.179 48.8244 30.725 49.6286 30.7734C50.334 30.8158 51.0168 30.7147 51.5917 30.2621C51.9057 30.015 52.3235 29.5895 52.555 29.2551C52.8375 28.8471 52.9682 28.5139 53.1476 28.0725C53.567 27.0405 53.9529 25.9862 54.4919 25.0094C54.8681 24.3277 55.2801 24.0193 56.0572 24.0449C56.68 24.0655 57.2003 24.0967 57.7309 24.4632C58.2261 24.8052 58.6762 25.2048 59.1653 25.5359C59.5799 25.8165 60.2369 26.143 60.7552 26.1601C61.1347 26.1726 61.4238 26.6384 61.5906 26.9635C62.2457 28.2404 61.0997 29.7839 60.0435 30.3964C59.4328 30.7506 58.9331 31.4101 58.4287 31.8991C57.8833 32.4278 57.279 32.934 56.8053 33.5239C56.4333 33.9873 55.8779 34.3897 55.4389 34.7853C55.1916 35.0081 54.958 35.1729 54.7764 35.4756Z" fill="#CDC1E7"/>
<path id="Exclude" fill-rule="evenodd" clip-rule="evenodd" d="M62.0708 38.3706C62.613 39.6035 62.6932 41.0898 62.2386 42.3388C62.0843 42.7627 61.8997 43.175 61.7219 43.5719C61.7111 43.5959 61.7004 43.6198 61.6898 43.6436C61.5 44.0676 61.3198 44.4756 61.1764 44.8919C61.0533 45.2495 60.8268 45.5301 60.6303 45.7593C60.5967 45.7985 60.5641 45.8362 60.5325 45.8727C60.3661 46.0647 60.2279 46.2242 60.1225 46.4093C59.7119 47.1305 59.6966 47.8152 59.6769 48.7012C59.6737 48.8443 59.6704 48.9927 59.6653 49.1473C59.6613 49.2673 59.6587 49.391 59.656 49.5176C59.6415 50.2032 59.6252 50.9714 59.3827 51.6897C59.3331 51.8365 59.3041 51.9576 59.2718 52.0921C59.2495 52.1849 59.2258 52.284 59.1926 52.4024C59.1197 52.6633 59.0151 52.946 58.8017 53.2226C58.134 54.0881 56.9795 54.8104 55.748 54.3864C55.5294 54.3111 55.3309 54.1845 55.1848 54.0912C55.1529 54.0709 55.1235 54.0522 55.0969 54.0359C54.9279 53.9323 54.8141 53.8833 54.6895 53.8792C54.608 53.8765 54.515 53.8656 54.4372 53.8564L54.419 53.8543C54.3296 53.8438 54.2486 53.8348 54.172 53.8315C54.0944 53.8282 54.0389 53.8318 54.0015 53.8393C53.9893 53.8418 53.9815 53.8442 53.9773 53.8458C53.7619 54.05 53.6627 54.2526 53.5402 54.5834C53.3763 55.0257 53.0602 55.4209 52.7426 55.7532C52.5049 56.0018 52.2424 56.2386 52.0162 56.4425C51.9405 56.5108 51.8689 56.5754 51.8037 56.6355C51.6013 56.8221 51.3681 56.9173 51.1229 56.9273C50.888 56.937 50.6721 56.8674 50.4917 56.7787C50.15 56.6108 49.8412 56.3245 49.6404 56.1383L49.6248 56.1238L49.6081 56.1084C49.2001 55.7304 48.8015 55.3461 48.4608 54.8543C48.3534 54.6993 48.2538 54.5477 48.157 54.4003C47.9367 54.0649 47.7309 53.7516 47.481 53.4711C47.3736 53.3507 47.2588 53.2082 47.1457 53.0679C47.1044 53.0167 47.0634 52.9657 47.023 52.9163C46.8657 52.7236 46.7074 52.5383 46.5414 52.3791C46.2003 52.0517 45.8997 51.9033 45.5976 51.948C45.2221 52.0035 44.7877 52.2135 44.3991 52.5229C44.0107 52.8322 43.7082 53.2087 43.5664 53.5544C43.5053 53.7034 43.4452 53.852 43.3852 54.0002C43.0564 54.8131 42.7317 55.6157 42.2654 56.4231C42.2335 56.4782 42.1994 56.5393 42.1631 56.6041C42.0624 56.7843 41.9456 56.9932 41.8183 57.1817C41.6409 57.4442 41.4115 57.7186 41.0982 57.9037C40.5847 58.2072 39.8748 58.2162 39.2713 58.0747C38.6689 57.9335 38.0328 57.6094 37.7165 57.0876C37.6041 56.902 37.5019 56.8127 37.4177 56.7653C37.3337 56.718 37.2361 56.6945 37.102 56.6911C36.9659 56.6876 36.8184 56.7043 36.6242 56.7264L36.5932 56.7299C36.394 56.7525 36.1578 56.7778 35.9032 56.7693C34.8798 56.7355 34.1588 56.3797 33.404 55.8277C32.8319 55.4093 32.4909 54.7098 32.312 54.0268C32.1312 53.337 32.0972 52.5946 32.1976 52.017C32.2261 51.853 32.2441 51.6967 32.2636 51.5284C32.275 51.4294 32.2869 51.3262 32.3017 51.2149C32.3392 50.9324 32.3931 50.626 32.5075 50.3276C32.5913 50.1091 32.6813 49.8903 32.7689 49.677C32.8189 49.5555 32.8681 49.4358 32.915 49.319C33.1516 48.7296 33.7422 48.3741 34.1467 48.1665C34.4818 47.9946 34.8061 47.7695 35.1455 47.5339C35.2983 47.4278 35.4542 47.3196 35.6156 47.2131C35.7503 47.1243 35.9105 47.0329 36.0555 46.9503C36.135 46.905 36.21 46.8623 36.2736 46.824C36.4766 46.7019 36.6406 46.5845 36.7662 46.4426C36.8213 46.3803 36.9112 46.292 37.0036 46.2012C37.0275 46.1777 37.0515 46.1541 37.0752 46.1307C37.1997 46.0077 37.3356 45.8703 37.4574 45.7313C37.5702 45.6028 37.6584 45.4867 37.7136 45.391C37.6825 45.3863 37.6515 45.3824 37.6169 45.3781C37.595 45.3753 37.5717 45.3724 37.546 45.369C37.4842 45.3608 37.3778 45.3464 37.2852 45.3109C36.8947 45.1611 36.5494 45.071 36.1342 44.9957C36.0631 44.9828 35.9919 44.9699 35.9206 44.957C34.8211 44.7579 33.6886 44.5529 32.5899 44.2354C31.3385 43.8737 30.0912 43.4779 28.8523 43.0838C27.897 42.7799 26.9516 42.316 26.1345 41.7136C25.667 41.3688 25.4959 40.8399 25.5066 40.3487C25.5171 39.8629 25.7033 39.3666 26.0138 39.0117C26.1274 38.8818 26.2509 38.7821 26.3571 38.702C26.4 38.6698 26.4368 38.6428 26.4702 38.6185C26.529 38.5755 26.5769 38.5405 26.6274 38.4983C26.7525 38.3936 26.8036 38.3172 26.8084 38.1711C26.8243 37.6889 26.745 37.4075 26.4654 37.2303C26.2707 37.1069 26.0923 36.9195 25.958 36.7254C25.8259 36.5343 25.7067 36.2939 25.6766 36.05C25.6545 35.87 25.6392 35.637 25.6584 35.4032C25.6767 35.18 25.7299 34.9077 25.8819 34.6849C25.8827 34.683 25.888 34.6721 25.8977 34.646C25.8984 34.6439 25.9015 34.6351 25.9059 34.6227C25.9182 34.5875 25.9408 34.5233 25.9508 34.4973L25.9519 34.4944C25.985 34.4081 26.0874 34.1411 26.3703 34.0535C26.7264 33.9433 27.1869 33.8977 27.6259 33.9066C28.0633 33.9155 28.527 33.9794 28.8836 34.1196C29.0316 34.1778 29.2081 34.2063 29.4304 34.2305C29.4693 34.2347 29.5104 34.2388 29.5531 34.2431C29.735 34.2615 29.9457 34.2827 30.1415 34.3264C30.2759 34.3564 30.4011 34.3867 30.5205 34.4157C30.8901 34.5052 31.2048 34.5815 31.569 34.5935L34.0161 34.6744C34.7652 34.6992 35.3952 34.6572 36.0108 34.3744C36.7164 34.0503 37.0398 33.6922 37.4694 33.024C37.9161 32.3293 38.1255 31.7738 38.1527 30.952C38.1732 30.3322 38.1491 29.9103 37.8656 29.4755C37.7733 29.3339 37.6891 29.199 37.6088 29.0703C37.2956 28.5685 37.0407 28.1603 36.5888 27.8082C36.2738 27.5628 35.9767 27.2982 35.6901 27.0388C35.6448 26.9978 35.5998 26.957 35.555 26.9164C35.3136 26.6973 35.0789 26.4843 34.8361 26.281C34.4751 25.9787 34.0442 25.6008 33.6868 25.1666C33.3313 24.7346 33.0214 24.2149 32.947 23.6254C32.9147 23.3699 32.888 23.0066 32.9399 22.6564C32.99 22.318 33.1283 21.8975 33.512 21.6596C33.8246 21.4658 34.2123 21.3694 34.5658 21.3177C34.9259 21.265 35.289 21.2537 35.5747 21.2525C35.6741 21.2521 35.7867 21.2334 35.9229 21.2012C35.9847 21.1866 36.0465 21.1705 36.1133 21.153L36.1325 21.148C36.2046 21.1292 36.2825 21.109 36.3608 21.0915C36.4823 21.0642 36.6101 21.0661 36.6832 21.0673C36.6908 21.0674 36.6978 21.0675 36.7041 21.0675C36.7468 21.068 36.7745 21.0677 36.7971 21.066C36.8084 21.0652 36.8153 21.0642 36.8186 21.0636C36.8225 21.0611 36.8403 21.0501 36.8915 21.0123C36.8941 21.0104 36.8968 21.0084 36.8996 21.0063C36.9553 20.965 37.0615 20.8863 37.1962 20.8411C37.2175 20.834 37.2579 20.8156 37.326 20.7784C37.3669 20.7561 37.4041 20.7347 37.4451 20.7112C37.4752 20.6939 37.5073 20.6755 37.5446 20.6545C37.6227 20.6106 37.7138 20.5614 37.8051 20.5224C37.89 20.4862 38.0116 20.4425 38.1438 20.4396C38.2956 20.4362 38.4627 20.4447 38.6089 20.4521C38.6733 20.4554 38.7336 20.4585 38.7868 20.4602C39.8259 20.4946 40.4745 21.0463 41.1058 21.5833C41.2005 21.6638 41.2948 21.744 41.3899 21.8221C42.3864 22.6397 43.1633 23.6243 43.883 24.6166C44.0627 24.8643 44.2381 25.1115 44.4123 25.3569C44.9441 26.1062 45.4645 26.8393 46.06 27.5247C46.6628 28.2185 47.2598 28.891 47.9594 29.4085C48.0873 29.5031 48.2117 29.6026 48.3278 29.6957C48.3562 29.7184 48.3842 29.7408 48.4116 29.7626C48.5547 29.8767 48.6871 29.9791 48.8216 30.068C49.0858 30.2426 49.3433 30.3551 49.6526 30.3737C50.3076 30.4131 50.8768 30.3152 51.344 29.9475C51.632 29.7208 52.0206 29.3235 52.2257 29.0272C52.472 28.6714 52.5886 28.3844 52.7606 27.9609C52.7659 27.948 52.7712 27.9349 52.7765 27.9218C52.8529 27.7338 52.9289 27.5433 53.0054 27.3512C53.3418 26.5074 53.69 25.6337 54.1412 24.816C54.3446 24.4474 54.5811 24.1353 54.9074 23.9252C55.2404 23.7108 55.6241 23.63 56.0703 23.6448C56.6923 23.6653 57.3218 23.6941 57.9584 24.1338C58.2079 24.3061 58.4452 24.4915 58.6708 24.6678C58.6795 24.6746 58.6881 24.6814 58.6968 24.6881C58.9336 24.8731 59.1581 25.0476 59.3896 25.2043C59.5776 25.3315 59.8227 25.4703 60.0773 25.578C60.3366 25.6878 60.5788 25.7536 60.7683 25.7599C61.1222 25.7716 61.3849 25.9902 61.5522 26.179C61.7263 26.3755 61.8584 26.6086 61.9467 26.7807C62.3559 27.5782 62.1843 28.4296 61.8109 29.1197C61.4379 29.8088 60.834 30.4008 60.2443 30.7428C59.987 30.892 59.7399 31.1139 59.4824 31.3772C59.3883 31.4734 59.2856 31.5832 59.1804 31.6958C59.0219 31.8651 58.8576 32.0409 58.7073 32.1866C58.5445 32.3444 58.3826 32.4951 58.2239 32.6427C57.8228 33.0161 57.442 33.3704 57.1174 33.7747C56.9082 34.0352 56.6543 34.2705 56.4092 34.4828C56.3008 34.5766 56.1989 34.6621 56.1009 34.7442C55.964 34.8591 55.8349 34.9674 55.7069 35.0828C55.6423 35.141 55.5841 35.1914 55.5311 35.2374C55.3499 35.3945 55.229 35.4994 55.1197 35.6816C55.1207 35.68 55.1206 35.6795 55.1197 35.6816C55.1173 35.6876 55.1083 35.7104 55.0968 35.756C55.0927 35.7722 55.0887 35.7896 55.0849 35.808C56.3528 35.5733 57.8575 35.688 59.0138 35.8715C60.4923 36.1062 61.5261 37.1321 62.0708 38.3706ZM61.3377 38.693C60.875 37.641 60.0364 36.8447 58.8883 36.6624C57.578 36.4545 55.9243 36.3601 54.7396 36.7119L54.2071 36.8701L54.2254 36.3149C54.2289 36.2107 54.2408 36.0276 54.2667 35.8432C54.2797 35.751 54.297 35.6521 54.3204 35.5597C54.3421 35.4738 54.3759 35.3648 54.4329 35.2697C54.6143 34.9672 54.8523 34.7629 55.0475 34.5953C55.0911 34.5579 55.1325 34.5223 55.1707 34.4879C55.3039 34.3679 55.4573 34.239 55.6066 34.1134C55.7033 34.0322 55.7983 33.9524 55.885 33.8773C56.1203 33.6736 56.3301 33.4761 56.493 33.2733C56.8567 32.8203 57.3026 32.4053 57.7185 32.0183C57.8679 31.8793 58.0134 31.7439 58.1499 31.6116C58.295 31.4709 58.4267 31.3295 58.5675 31.1784C58.6733 31.0648 58.7842 30.9457 58.9099 30.8173C59.181 30.54 59.4891 30.255 59.8425 30.0501C60.309 29.7795 60.8062 29.2935 61.1066 28.7385C61.4063 28.1846 61.4802 27.6258 61.2342 27.1463C61.1557 26.9933 61.0599 26.831 60.9528 26.7101C60.839 26.5817 60.7674 26.5612 60.7418 26.5603C60.4131 26.5494 60.0675 26.4435 59.7652 26.3156C59.4581 26.1856 59.1674 26.0209 58.9408 25.8675C58.6832 25.6932 58.4381 25.5023 58.2037 25.3192L58.1845 25.3041C57.9537 25.1238 57.733 24.9513 57.5033 24.7927C57.0785 24.4993 56.6675 24.4658 56.0438 24.4452C55.713 24.4342 55.5021 24.4948 55.3408 24.5986C55.1727 24.7068 55.0152 24.8897 54.8424 25.2029C54.4177 25.9724 54.0922 26.7886 53.7568 27.6293C53.6784 27.8261 53.5994 28.0241 53.5184 28.2233C53.5106 28.2425 53.5029 28.2616 53.4952 28.2806C53.3275 28.6939 53.1815 29.0535 52.8841 29.483C52.6263 29.8555 52.1791 30.3093 51.8393 30.5768C51.1566 31.1141 50.3602 31.2185 49.6045 31.1731C49.1094 31.1433 48.7167 30.9586 48.3799 30.736C48.214 30.6263 48.0583 30.5051 47.9126 30.389C47.8818 30.3644 47.8515 30.3402 47.8216 30.3163C47.7067 30.2243 47.5975 30.1369 47.4832 30.0524C46.7028 29.4752 46.0524 28.737 45.4555 28.05C44.8317 27.3321 44.2794 26.5538 43.7423 25.7969C43.5722 25.5572 43.4036 25.3196 43.2347 25.0868C42.5241 24.1069 41.796 23.1912 40.8819 22.4412C40.7713 22.3504 40.6678 22.2634 40.5693 22.1807C39.9282 21.6421 39.5034 21.2852 38.7603 21.2606C38.6752 21.2578 38.5989 21.2538 38.527 21.2501C38.4024 21.2435 38.2913 21.2377 38.1716 21.24C38.1671 21.2412 38.1506 21.2457 38.1193 21.2591C38.0699 21.2801 38.0101 21.3115 37.937 21.3526C37.9134 21.3659 37.8859 21.3817 37.8568 21.3983C37.808 21.4263 37.755 21.4566 37.7101 21.4811C37.6359 21.5217 37.5435 21.5693 37.4511 21.6003C37.4505 21.6006 37.4449 21.6028 37.4327 21.6104C37.4165 21.6205 37.3985 21.6334 37.3671 21.6566C37.3638 21.659 37.3601 21.6617 37.3562 21.6647C37.304 21.7036 37.1983 21.7823 37.0685 21.8247C36.9275 21.8708 36.7823 21.8692 36.7032 21.8684L36.696 21.8683C36.5914 21.8673 36.5586 21.8678 36.5361 21.8729C36.4729 21.887 36.4074 21.9039 36.3347 21.9229L36.3149 21.9281C36.2496 21.9451 36.1786 21.9637 36.1071 21.9806C35.9503 22.0176 35.7682 22.0526 35.5779 22.0534C35.3069 22.0544 34.9871 22.0654 34.6817 22.1101C34.3696 22.1558 34.109 22.2317 33.9339 22.3403C33.8515 22.3914 33.77 22.5174 33.7321 22.7737C33.6959 23.0183 33.7128 23.2982 33.7415 23.5251C33.7891 23.9018 33.9957 24.2816 34.3051 24.6576C34.6127 25.0313 34.9953 25.3697 35.3502 25.667C35.6064 25.8814 35.8547 26.1068 36.0958 26.3257C36.14 26.3658 36.1839 26.4056 36.2275 26.4451C36.5129 26.7034 36.7912 26.9507 37.081 27.1765C37.6557 27.6242 37.9993 28.178 38.3191 28.6935C38.392 28.811 38.4637 28.9264 38.5365 29.0382C38.9648 29.6952 38.9743 30.3375 38.9531 30.9784C38.9202 31.9715 38.6521 32.6655 38.143 33.4571C37.6629 34.2038 37.2353 34.6932 36.3451 35.1021C35.5578 35.4637 34.7764 35.5008 33.9897 35.4748L31.5426 35.3939C31.0881 35.3789 30.6679 35.2766 30.2821 35.1826C30.1744 35.1564 30.0694 35.1309 29.9671 35.108C29.8223 35.0757 29.6727 35.0605 29.496 35.0425C29.4474 35.0375 29.3969 35.0324 29.3438 35.0266C29.1149 35.0017 28.8458 34.9652 28.5905 34.8648C28.3566 34.7729 27.998 34.7152 27.6097 34.7073C27.2664 34.7003 26.9374 34.733 26.6947 34.7941C26.6893 34.8086 26.6837 34.8247 26.6769 34.8443C26.6692 34.8665 26.6592 34.8955 26.6489 34.9235C26.6298 34.9751 26.5973 35.0581 26.544 35.1354C26.5071 35.1888 26.4706 35.2977 26.4566 35.4687C26.4433 35.6307 26.4535 35.8058 26.4715 35.9521C26.4798 36.0199 26.5249 36.1371 26.6166 36.2698C26.7063 36.3994 26.8115 36.5016 26.894 36.5538C27.5539 36.9719 27.6269 37.6512 27.6088 38.1976C27.5939 38.6488 27.3714 38.92 27.1413 39.1125C27.0709 39.1714 26.987 39.2328 26.9161 39.2847C26.8877 39.3055 26.8615 39.3248 26.839 39.3417C26.7483 39.41 26.6761 39.4709 26.6165 39.539C26.4361 39.7451 26.3139 40.0583 26.3072 40.3661C26.3006 40.6684 26.4035 40.9169 26.6098 41.069C27.35 41.6148 28.2154 42.0408 29.095 42.3206C30.3352 42.7151 31.5727 43.1078 32.8122 43.466C33.8701 43.7718 34.9647 43.97 36.0734 44.1708C36.1413 44.1831 36.2092 44.1954 36.2772 44.2077C36.732 44.2903 37.1264 44.3923 37.5713 44.5629C37.5694 44.5622 37.569 44.562 37.5707 44.5623C37.5755 44.5631 37.5977 44.568 37.6517 44.5752C37.6651 44.577 37.681 44.5789 37.6986 44.5812C37.7523 44.5879 37.8217 44.5966 37.8847 44.6074C37.9695 44.622 38.0814 44.6462 38.1875 44.695C38.2938 44.7439 38.4372 44.8378 38.5139 45.0146C38.6351 45.2941 38.524 45.5723 38.4385 45.7346C38.3415 45.9186 38.1983 46.1011 38.0596 46.2593C37.9181 46.4207 37.7653 46.5746 37.6382 46.7003C37.6054 46.7326 37.5753 46.7622 37.5479 46.7892C37.4611 46.8746 37.4007 46.934 37.3659 46.9733C37.1593 47.2067 36.9129 47.3741 36.6863 47.5103C36.5846 47.5715 36.4947 47.6224 36.4104 47.6701C36.2871 47.7399 36.1757 47.803 36.0566 47.8816C35.9302 47.965 35.7946 48.0591 35.6529 48.1573C35.2942 48.4061 34.8968 48.6817 34.5122 48.8791C34.11 49.0855 33.7745 49.3275 33.6581 49.6174C33.6059 49.7476 33.5544 49.8727 33.5037 49.9961C33.419 50.2019 33.3364 50.4029 33.2552 50.6144C33.1747 50.8244 33.1305 51.0569 33.0955 51.3204C33.0846 51.4027 33.0741 51.4925 33.0633 51.586C33.0417 51.7711 33.0185 51.9705 32.9866 52.1541C32.908 52.6063 32.9317 53.2322 33.0867 53.8239C33.2434 54.4224 33.5161 54.9175 33.8768 55.1813C34.551 55.6744 35.1191 55.9421 35.9296 55.9689C36.1198 55.9752 36.3041 55.9567 36.503 55.9342C36.5182 55.9325 36.5335 55.9307 36.5491 55.9289C36.7266 55.9086 36.928 55.8855 37.1226 55.8905C37.3432 55.8962 37.5797 55.9374 37.8107 56.0675C38.0414 56.1975 38.2352 56.3983 38.4014 56.6725C38.5587 56.9321 38.9514 57.1772 39.4541 57.295C39.9556 57.4126 40.4267 57.3704 40.6909 57.2143C40.8568 57.1162 41.0064 56.953 41.1547 56.7334C41.2618 56.5748 41.3523 56.4129 41.4473 56.2429C41.4875 56.171 41.5285 56.0977 41.5719 56.0225C42.008 55.2676 42.3094 54.5231 42.6386 53.7101C42.6996 53.5594 42.7615 53.4064 42.8255 53.2505C43.0327 52.7453 43.4369 52.2653 43.9003 51.8964C44.3636 51.5276 44.9262 51.2377 45.4805 51.1558C46.1585 51.0555 46.7006 51.4218 47.096 51.8013C47.2983 51.9955 47.4816 52.2116 47.6434 52.4099C47.6922 52.4696 47.7382 52.5267 47.7822 52.5813C47.89 52.7151 47.9856 52.8337 48.0788 52.9383C48.3701 53.2651 48.6281 53.6576 48.8618 54.0133C48.9509 54.1489 49.0365 54.2791 49.1191 54.3983C49.4059 54.8124 49.7478 55.1462 50.1523 55.5209L50.1691 55.5364C50.3887 55.74 50.6187 55.9488 50.8448 56.06C50.9528 56.113 51.033 56.1295 51.0902 56.1272C51.137 56.1253 51.1916 56.1105 51.261 56.0466C51.3383 55.9753 51.4179 55.9036 51.4985 55.8308C51.7194 55.6316 51.9484 55.425 52.1638 55.1998C52.4574 54.8927 52.6827 54.5927 52.7892 54.3052C52.9284 53.9295 53.0815 53.5872 53.4379 53.2537C53.6802 53.0269 54.018 53.0233 54.2064 53.0315C54.3163 53.0362 54.4248 53.0487 54.512 53.0589C54.6074 53.07 54.6694 53.0772 54.716 53.0788C55.0565 53.09 55.3188 53.2326 55.5154 53.3531C55.566 53.3841 55.6112 53.4127 55.6528 53.439C55.7901 53.5257 55.8881 53.5877 56.0087 53.6292C56.7711 53.8917 57.5984 53.4713 58.1676 52.7334C58.2929 52.571 58.3623 52.3981 58.4214 52.1868C58.4386 52.1251 58.4575 52.0482 58.4783 51.9634C58.5188 51.7983 58.5666 51.6034 58.624 51.4335C58.8237 50.8419 58.8381 50.2171 58.854 49.5301C58.8571 49.3961 58.8603 49.2598 58.8649 49.1208C58.8694 48.9836 58.872 48.8458 58.8746 48.7073C58.8912 47.8268 58.9083 46.9235 59.4266 46.0131C59.5747 45.7528 59.7732 45.5248 59.9389 45.3345C59.9678 45.3012 59.9958 45.2691 60.0223 45.2382C60.2145 45.0139 60.3499 44.8327 60.4192 44.6312C60.5758 44.1765 60.7702 43.7379 60.9588 43.3164C60.9685 43.2948 60.9781 43.2733 60.9877 43.2519C61.1684 42.8485 61.342 42.4608 61.4861 42.0649C61.8651 41.0234 61.8029 39.7507 61.3377 38.693ZM48.4478 40.1491C48.6201 41.0968 48.3606 42.0156 47.8201 42.6916C47.2696 43.3799 46.3526 44.0767 45.0937 44.0297C43.7984 43.9814 42.8436 43.1753 42.2762 42.3718C42.0042 41.9866 41.7389 41.502 41.6045 40.9443C41.4778 40.4184 41.4036 39.5097 41.9792 38.694C42.5519 37.8824 43.405 37.6633 44.0512 37.6683C44.077 37.6557 44.1033 37.6434 44.1302 37.6314C44.5067 37.463 44.9671 37.3592 45.4949 37.4111C45.978 37.4586 46.3803 37.6238 46.67 37.7721C47.6247 38.261 48.2662 39.1497 48.4478 40.1491Z" fill="white"/>
</g>
<g id="Linked Path Group">
<path id="[Copy] Trista" d="M57.204 92.6569C57.1922 92.6561 57.1567 92.6595 57.0973 92.6671C57.0488 92.6873 56.9882 92.7125 56.9154 92.7428C56.8544 92.7738 56.7933 92.8049 56.7323 92.836C56.6822 92.8796 56.6559 92.919 56.6534 92.9541L56.6522 92.9717C56.6506 92.9951 56.6607 93.0194 56.6825 93.0445L56.5885 93.1262C56.5433 93.0995 56.521 93.0803 56.5219 93.0686C56.5227 93.0569 56.5231 93.051 56.5231 93.051C56.5348 93.0518 56.5411 93.0464 56.5419 93.0347L56.5243 93.0335C56.5126 93.0326 56.4946 93.0373 56.4704 93.0474C56.4578 93.0583 56.4394 93.0688 56.4152 93.0788C56.3465 93.0505 56.2958 93.0176 56.2631 92.98C56.2413 92.9549 56.2199 92.924 56.1989 92.8872C56.1771 92.8621 56.1495 92.8366 56.1159 92.8108C56.0824 92.7849 56.0305 92.7695 55.9602 92.7646C55.9812 92.8014 56.0084 92.8327 56.042 92.8586C56.0747 92.8962 56.0878 92.9619 56.0812 93.0556L56.0788 93.0908C56.0436 93.0883 56.0039 93.0679 55.9594 93.0295C55.9267 92.9919 55.8944 92.9484 55.8625 92.8991C55.8157 92.8958 55.7734 92.9106 55.7358 92.9433C55.7091 92.9885 55.6829 93.0279 55.657 93.0614C55.6259 93.0004 55.5605 92.9252 55.4607 92.8358C55.361 92.7465 55.2839 92.6704 55.2294 92.6078L55.2706 92.5223L55.2355 92.5199C55.2379 92.4848 55.2278 92.4605 55.2052 92.4472C55.1818 92.4455 55.1533 92.4318 55.1198 92.4059C55.0854 92.3917 55.0578 92.3663 55.0368 92.3295C55.0158 92.2927 55.0078 92.2391 55.0127 92.1688C55.0192 92.0751 55.0649 91.9252 55.1499 91.7192C55.1314 91.6473 55.1221 91.6113 55.1221 91.6113C55.1254 91.5644 55.145 91.5364 55.1809 91.5271C55.2169 91.5178 55.2587 91.509 55.3064 91.5005C55.3549 91.4803 55.398 91.4539 55.4356 91.4212C55.4732 91.3885 55.4952 91.3253 55.5017 91.2315C55.5344 90.7628 55.5689 90.4356 55.6054 90.2497C55.6536 90.0647 55.6981 89.9324 55.739 89.8528C55.7798 89.7733 55.8136 89.7109 55.8403 89.6656C55.8795 89.6095 55.9061 89.4818 55.9199 89.2826C55.8698 89.3262 55.833 89.3472 55.8096 89.3456C55.7979 89.3448 55.7811 89.3318 55.7593 89.3068L55.8691 88.2371C55.8982 88.1567 55.9294 88.047 55.9626 87.908C55.9967 87.7573 56.0141 87.6761 56.0149 87.6644L56.2588 87.2046L56.2698 87.0464L56.2923 86.9773C56.3146 86.8258 56.3403 86.7098 56.3695 86.6294C56.4104 86.5499 56.4441 86.4875 56.4708 86.4422C56.4983 86.3853 56.5258 86.3283 56.5534 86.2714C56.5817 86.2027 56.6116 86.1106 56.6432 85.995L56.6555 85.8193L55.9639 85.8595L55.5172 85.9343L55.3941 85.9258C55.3824 85.925 55.364 85.9355 55.339 85.9573C55.3147 85.9673 55.2909 85.9716 55.2674 85.9699L55.2687 85.9524C55.1984 85.9475 55.164 85.9333 55.1656 85.9099C55.1673 85.8864 55.1447 85.8731 55.0978 85.8698C55.0861 85.869 55.0739 85.8741 55.0614 85.885C55.0497 85.8841 55.0321 85.8829 55.0087 85.8813L54.8857 85.8727C54.8739 85.8719 54.8497 85.882 54.8129 85.903C54.7887 85.9131 54.7648 85.9173 54.7414 85.9157L54.7238 85.9145C54.5246 85.9006 54.3969 85.874 54.3408 85.8348C54.2964 85.7964 54.2796 85.7835 54.2905 85.796L54.2966 85.7081C54.156 85.6983 54.0676 85.6156 54.0313 85.4601C53.9959 85.2928 53.9818 85.1564 53.9892 85.0509L54.1195 84.954C54.1438 84.9439 54.1559 84.9389 54.1559 84.9389C54.2145 84.943 54.2609 84.9521 54.2953 84.9663C54.3304 84.9687 54.3714 84.9716 54.4183 84.9748C54.5355 84.983 54.6179 84.9828 54.6656 84.9744C54.7133 84.9659 54.7626 84.934 54.8135 84.8787L54.9542 84.8885C55.1299 84.9007 55.2717 84.8929 55.3796 84.8651C55.4884 84.8256 55.6247 84.8115 55.7888 84.8229C55.8356 84.8262 55.9051 84.8428 55.9972 84.8728C56.1019 84.8918 56.1776 84.903 56.2245 84.9063L56.2421 84.9075L56.2784 84.8923C56.2893 84.9049 56.3065 84.912 56.33 84.9136C56.3768 84.9169 56.4245 84.9084 56.473 84.8882C56.5223 84.8563 56.5528 84.8408 56.5646 84.8416C56.5755 84.8541 56.5809 84.8604 56.5809 84.8604C56.6278 84.8637 56.7064 84.8338 56.8167 84.7709C56.9396 84.697 57.0421 84.6629 57.1241 84.6686C57.1592 84.6711 57.194 84.6794 57.2283 84.6935C57.2752 84.6968 57.3279 84.7005 57.3865 84.7045C57.4802 84.7111 57.581 84.7004 57.6889 84.6726L57.7768 84.6787C57.9174 84.6885 58.0526 84.692 58.1823 84.6893C58.3245 84.6756 58.4659 84.6737 58.6066 84.6835L58.6944 84.6896C58.7179 84.6912 58.7534 84.6878 58.8011 84.6794C58.8605 84.6717 58.9371 84.6712 59.0308 84.6777C59.066 84.6801 59.1011 84.6826 59.1363 84.685C59.1714 84.6875 59.2179 84.6966 59.2757 84.7124L59.7151 84.743C59.8557 84.7527 59.9837 84.7734 60.0993 84.805C60.2273 84.8257 60.3705 84.8828 60.5289 84.9762C60.5038 84.998 60.4901 85.0265 60.4876 85.0616C60.486 85.0851 60.4874 85.1499 60.4917 85.2562C60.5086 85.3516 60.5163 85.411 60.5147 85.4344C60.5264 85.4352 60.5264 85.4352 60.5147 85.4344C60.5155 85.4227 60.5217 85.4172 60.5335 85.418C60.5452 85.4189 60.5565 85.4255 60.5674 85.4381C60.3584 85.5648 60.141 85.6439 59.9151 85.6752C59.69 85.6949 59.5001 85.717 59.3453 85.7416C59.3219 85.7399 59.2269 85.751 59.0604 85.7747C58.894 85.7985 58.579 85.8413 58.1155 85.9032L58.3857 86.081C58.323 86.1355 58.2704 86.2142 58.2279 86.3173C58.1863 86.4085 58.1626 86.4952 58.1569 86.5772L58.3187 86.5355L58.096 86.9439L58.0471 87.6469C57.9626 87.6763 57.9163 87.7496 57.9082 87.8668L57.9997 87.8202L58.0349 87.8227C58.0583 87.8243 58.068 87.8544 58.0639 87.913L58.0602 87.9657C58.0586 87.9891 58.0503 88.0239 58.0353 88.0699C58.0204 88.116 58.0116 88.1566 58.0092 88.1917L57.8425 88.3038L57.8229 88.585C57.8698 88.5882 57.8948 88.5664 57.8981 88.5196C57.9005 88.4844 57.8959 88.4664 57.8842 88.4656C57.8733 88.4531 57.8686 88.4351 57.8703 88.4117C57.8752 88.3414 57.9069 88.3083 57.9655 88.3123C58.0124 88.3156 58.035 88.3289 58.0333 88.3524L58.0236 88.493L58.0162 88.5984C58.0113 88.6687 57.9963 88.7148 57.9713 88.7366L57.8998 88.7493L57.8736 88.8711L57.8058 88.831C57.7823 88.8294 57.7623 88.8633 57.7457 88.9328C57.7416 88.9914 57.7309 89.0613 57.7134 89.1425C57.696 89.2237 57.6844 89.3053 57.6787 89.3873C57.6738 89.4577 57.671 89.4987 57.6702 89.5104C57.6669 89.5572 57.6699 89.5987 57.6792 89.6346L57.7168 89.6019C57.7184 89.5785 57.7263 89.5496 57.7405 89.5153C57.7546 89.4809 57.7621 89.4579 57.763 89.4462L57.7302 89.4086L57.7351 89.3383C57.7368 89.3149 57.7384 89.2914 57.74 89.268C57.7542 89.2337 57.7906 89.2185 57.8492 89.2226C57.8843 89.225 57.899 89.2673 57.8933 89.3493C57.8901 89.3962 57.8759 89.4305 57.8508 89.4523C57.8375 89.4749 57.8288 89.5155 57.8247 89.5741C57.8231 89.5976 57.8214 89.621 57.8198 89.6444C57.8307 89.6569 57.8353 89.6749 57.8337 89.6984C57.8321 89.7218 57.8183 89.7503 57.7924 89.7838C57.7791 89.8064 57.7716 89.8294 57.77 89.8529C57.7683 89.8763 57.7709 89.9236 57.7778 89.9947C57.7854 90.0541 57.788 90.1014 57.7856 90.1365C57.7831 90.1717 57.7685 90.2119 57.7418 90.2571C57.716 90.2906 57.6897 90.33 57.663 90.3753L57.5465 90.5261L57.4988 91.2116C57.4596 91.2677 57.4379 91.3251 57.4339 91.3836C57.4314 91.4188 57.4286 91.4598 57.4253 91.5067C57.4346 91.5426 57.4384 91.5723 57.4368 91.5958L57.204 92.6569ZM57.5265 88.529L57.6483 88.5552C57.6573 88.4263 57.673 88.2861 57.6953 88.1346C57.7184 87.9714 57.7345 87.8253 57.7434 87.6964L57.7205 87.5182C57.6963 87.5283 57.6758 87.5681 57.6592 87.6376C57.6426 87.7071 57.6252 87.7883 57.6069 87.8812C57.5895 87.9624 57.5721 88.0436 57.5547 88.1248C57.549 88.2068 57.5453 88.2595 57.5437 88.283L57.5703 88.4085L57.5265 88.529ZM57.4172 89.846C57.5104 89.5228 57.5679 89.203 57.59 88.8867L57.6022 88.7109L57.4735 89.0375L57.4172 89.846ZM55.871 89.9856C55.8585 89.9965 55.8518 90.0079 55.851 90.0196C55.8494 90.043 55.8599 90.0614 55.8825 90.0747C55.9051 90.0881 55.9273 90.1073 55.9491 90.1324L55.9528 90.0796C55.9544 90.0562 55.9506 90.0265 55.9413 89.9905C55.9438 89.9554 55.9274 89.9366 55.8923 89.9341C55.8337 89.9301 55.7785 89.9615 55.7267 90.0286C55.7761 89.9967 55.8183 89.982 55.8534 89.9844L55.871 89.9856ZM55.8845 89.7923C55.861 89.7907 55.8481 89.8074 55.8457 89.8426C55.8432 89.8777 55.8537 89.8961 55.8771 89.8978C55.9006 89.8994 55.9131 89.8885 55.9147 89.8651C55.9164 89.8416 55.9063 89.8174 55.8845 89.7923Z" fill="#47A47D"/>
<path id="[Copy] Trista_2" d="M66.526 90.8294L66.5389 90.9698C66.5463 91.0516 66.5639 91.1149 66.5916 91.1595L66.6251 91.1388C66.6294 91.1856 66.6289 91.2446 66.6236 91.3158C66.629 91.3743 66.6093 91.4174 66.5647 91.4451L66.5477 92.2251C66.5019 92.2411 66.4498 92.2517 66.3914 92.2571L66.3036 92.2651C66.2802 92.2673 66.2521 92.2816 66.2191 92.3082L66.1887 92.1695C66.1558 92.1961 66.1414 92.2328 66.1457 92.2796L66.1554 92.3849L66.1618 92.455C66.1363 92.4338 66.1059 92.4248 66.0709 92.428C66.0475 92.4301 66.0358 92.4312 66.0358 92.4312C66.0485 92.4418 66.0432 92.4482 66.0198 92.4503C65.9847 92.4536 65.9124 92.4366 65.8029 92.3994C65.6933 92.3623 65.5742 92.3496 65.4455 92.3614C65.3754 92.3678 65.3233 92.3785 65.2892 92.3934C65.2871 92.37 65.2903 92.3402 65.2988 92.3041C65.3072 92.2679 65.3104 92.2381 65.3083 92.2147C65.2444 92.1616 65.196 92.0835 65.163 91.9804C65.1416 91.8762 65.0842 91.8283 64.9906 91.8369L64.9555 91.8401C64.9852 91.7784 64.9969 91.7125 64.9905 91.6423C64.9947 91.5594 64.9941 91.4886 64.9887 91.4302C64.9866 91.4068 64.9685 91.3377 64.9344 91.2228L64.8959 90.9964L64.8831 90.856L64.8767 90.7858C64.8862 90.7614 64.9075 90.7358 64.9404 90.7092C64.9851 90.6815 65.018 90.6549 65.0392 90.6294C65.0371 90.606 65.0222 90.572 64.9945 90.5273C64.9668 90.4827 64.9509 90.437 64.9466 90.3902L65.0247 90.2769C65.013 90.278 65.0044 90.2493 64.9991 90.1908C64.9927 90.1206 64.9852 90.0387 64.9766 89.9452C64.9797 89.8505 64.9786 89.7739 64.9732 89.7155C64.9668 89.6453 64.9578 89.6107 64.9461 89.6118L64.9208 87.5972C64.925 87.5143 64.9441 87.4654 64.9781 87.4504C65.0228 87.4228 65.0743 87.4062 65.1328 87.4009C65.1913 87.3955 65.2689 87.4061 65.3657 87.4326C65.4614 87.4475 65.5518 87.4687 65.6369 87.4963C65.7337 87.5228 65.8193 87.5562 65.8938 87.5966C65.9672 87.6252 66.0172 87.6561 66.0438 87.689C66.0566 87.6996 66.0779 87.739 66.1077 87.807C66.1492 87.874 66.1913 87.9468 66.2338 88.0254C66.2754 88.0924 66.3169 88.1594 66.3584 88.2263C66.4105 88.2805 66.4542 88.306 66.4892 88.3028L66.5387 88.2629C66.6821 88.1554 66.7858 88.0634 66.8495 87.9868C66.9122 87.8984 67.0297 87.8287 67.2019 87.7776C67.1976 87.7308 67.2677 87.6595 67.4123 87.5637C67.5675 87.4551 67.7291 87.3519 67.897 87.2539C68.0756 87.1432 68.2324 87.0522 68.3674 86.9808C68.5013 86.8978 68.5449 86.8584 68.4981 86.8627C68.5566 86.8574 68.6464 86.8727 68.7677 86.9088C68.8889 86.9449 69.0006 87.0054 69.1028 87.0904L69.4667 87.3933L69.2516 87.7491L68.9964 87.8609L69.0379 87.9279C68.9859 88.0034 68.8902 88.0535 68.7509 88.078C68.6233 88.1015 68.5266 88.1398 68.4607 88.193C68.4618 88.2047 68.4681 88.2101 68.4798 88.209L68.499 88.2249C68.3278 88.2878 68.163 88.3559 68.0047 88.4294C67.8696 88.5008 67.7293 88.5785 67.5837 88.6626C67.437 88.735 67.3206 88.8164 67.2345 88.9069L66.9971 89.2117C66.996 89.2 66.9625 89.2207 66.8966 89.274C66.8414 89.3144 66.776 89.3735 66.7005 89.4511C66.6357 89.516 66.572 89.5927 66.5093 89.681C66.4455 89.7576 66.4163 89.8251 66.4217 89.8836L66.4233 89.9011L66.5685 89.9409L66.5435 90.8278L66.526 90.8294ZM67.8511 87.7181C67.6916 87.7799 67.5571 87.8571 67.4477 87.9497L67.2818 88.071L67.3026 88.1045C67.4472 88.0087 67.5928 87.9246 67.7395 87.8522C67.8968 87.767 68.0329 87.7074 68.1477 87.6733C68.1009 87.6775 68.0483 87.6824 67.9898 87.6877C67.9313 87.6931 67.8851 87.7032 67.8511 87.7181ZM66.9741 88.1876C66.9528 88.2132 66.9039 88.2589 66.8274 88.3249C66.7498 88.3792 66.7004 88.4191 66.6791 88.4447L66.5819 88.542L66.5995 88.5404C66.6196 88.5032 66.6579 88.4702 66.7142 88.4414C66.7695 88.401 66.8253 88.3664 66.8817 88.3376C66.9486 88.2961 67.005 88.2674 67.0507 88.2514C67.0953 88.2237 67.1166 88.1982 67.1144 88.1748C67.1123 88.1514 67.0751 88.1312 67.0027 88.1143C66.991 88.1153 66.9863 88.1276 66.9884 88.151C66.9895 88.1627 66.9847 88.1749 66.9741 88.1876Z" fill="#47A47D"/>
<path id="[Copy] Trista_3" d="M74.9475 91.121C74.8452 91.097 74.7745 91.0534 74.7354 90.9903C74.6962 90.9271 74.6644 90.8441 74.64 90.7413L74.5789 90.4842L74.1619 87.4324C74.1592 87.4209 74.1521 87.4166 74.1407 87.4193C74.138 87.4079 74.1339 87.3907 74.1285 87.3679C74.1312 87.3793 74.1274 87.3379 74.1171 87.2438C74.1068 87.1497 74.0995 87.0427 74.0953 86.923C74.091 86.8033 74.0894 86.6951 74.0905 86.5982C74.089 86.4899 74.0996 86.4331 74.1225 86.4277C74.1453 86.4222 74.188 86.4242 74.2506 86.4334C74.3246 86.44 74.3673 86.4419 74.3787 86.4392C74.5126 86.4436 74.6636 86.444 74.8317 86.4403C75.0085 86.4224 75.178 86.4244 75.3401 86.4463C75.511 86.454 75.66 86.497 75.7873 86.5755C75.926 86.6512 76.0171 86.7804 76.0605 86.9633L75.9615 87.3852C75.9315 87.513 75.9086 87.6452 75.8928 87.7818C75.8856 87.9042 75.8899 88.0239 75.9056 88.1409C75.9084 88.1523 75.9179 88.1923 75.9341 88.2609C75.9477 88.318 75.9596 88.3937 75.9699 88.4878C75.9889 88.5678 76.0093 88.6535 76.031 88.7449C76.0527 88.8363 76.0717 88.9163 76.088 88.9849L76.1531 89.2592L76.1956 89.2853C76.1983 89.2967 76.1923 89.3223 76.1776 89.362C76.1716 89.3876 76.1726 89.4175 76.1808 89.4518L76.2101 89.4991C76.2129 89.5106 76.2041 89.5247 76.184 89.5416C76.1639 89.5584 76.1481 89.5682 76.1366 89.5709L76.1994 89.6828C76.188 89.6855 76.1836 89.6926 76.1864 89.704L76.1643 89.7635C76.1616 89.7521 76.1545 89.7478 76.1431 89.7505C76.1404 89.7391 76.1377 89.7276 76.1349 89.7162L76.0794 89.7113L76.0362 89.7578C76.0302 89.7833 76.035 89.8546 76.0507 89.9716C76.0665 90.0886 76.0656 90.1612 76.0482 90.1895L76.0825 90.1814C76.1167 90.1732 76.1516 90.1167 76.187 90.0117C76.2311 89.8925 76.2589 89.8316 76.2704 89.8289C76.2774 89.96 76.2955 90.1127 76.3248 90.2868C76.3628 90.4468 76.3967 90.5896 76.4266 90.7153L76.5106 90.8402L76.3098 90.8336L76.2535 90.9013C76.2306 90.9067 76.1876 90.929 76.1245 90.9682L76.064 91.0187L75.7784 90.9598L75.6927 90.9802L75.4641 91.1612L75.3229 91.1767L75.3066 91.1081L75.0495 91.1692L74.9475 91.121ZM73.591 85.1052C73.534 84.8652 73.5181 84.6457 73.5433 84.4465C73.5798 84.2447 73.6251 84.0287 73.6791 83.7986L73.777 83.8297C73.7884 83.8269 73.8083 83.8343 73.8366 83.8517C73.8736 83.855 73.9092 83.8526 73.9435 83.8444L74.3892 83.7386C74.4463 83.725 74.5187 83.7501 74.6062 83.8138C74.6938 83.8775 74.749 83.9066 74.7719 83.9012C74.7833 83.8985 74.7947 83.8958 74.8061 83.8931C74.8263 83.8762 74.8478 83.8651 74.8706 83.8596C74.9506 83.8406 75.0317 83.8516 75.1138 83.8924C75.2047 83.9191 75.2825 83.967 75.3472 84.0362C75.4233 84.1026 75.4823 84.1731 75.5242 84.2477C75.5774 84.3195 75.6122 84.3897 75.6285 84.4583C75.6475 84.5383 75.6107 84.6376 75.5182 84.7561C75.437 84.872 75.3317 84.9875 75.2021 85.1028C75.0813 85.2039 74.9477 85.3021 74.8012 85.3972C74.6635 85.4782 74.549 85.5296 74.4576 85.5513C74.2747 85.5947 74.0941 85.5712 73.9157 85.4808C73.7487 85.3877 73.6405 85.2625 73.591 85.1052ZM75.7994 89.9045C75.8048 89.9274 75.8143 89.9674 75.8279 90.0245C75.8529 90.079 75.8795 90.1149 75.9078 90.1323L75.8932 89.9185L75.9708 89.8638L75.9505 89.7781C75.9162 89.7863 75.8789 89.8072 75.8386 89.8409C75.8098 89.8719 75.7967 89.8931 75.7994 89.9045ZM76.0527 90.8947L76.1857 90.845L76.1654 90.7593L75.9899 90.7828L76.0527 90.8947ZM76.3212 90.9577C76.3609 90.9724 76.3848 90.9969 76.3929 91.0312C76.4038 91.0769 76.3921 91.1038 76.3578 91.1119C76.3235 91.1201 76.301 91.1013 76.2901 91.0556C76.2765 90.9984 76.2869 90.9658 76.3212 90.9577ZM76.0233 89.3987L76.0355 89.4501C76.0409 89.4729 76.0551 89.4816 76.0779 89.4762L76.1433 89.3702L76.1189 89.2673L76.0233 89.3987Z" fill="#47A47D"/>
<path id="[Copy] Trista_4" d="M83.4861 89.1455C83.4537 89.1592 83.4027 89.1744 83.3332 89.191C83.2791 89.2138 83.2119 89.2359 83.1316 89.257C83.0621 89.2737 82.9903 89.2849 82.9163 89.2907C82.8576 89.3027 82.8098 89.3102 82.7727 89.3131L82.3215 89.3316C82.2999 89.3408 82.2497 89.3428 82.1711 89.3378C82.0971 89.3436 81.9729 89.3514 81.7985 89.3614L81.4778 89.1909C81.4367 89.0935 81.4519 88.9787 81.5235 88.8464C81.5951 88.7141 81.6674 88.6135 81.7402 88.5444C81.751 88.5398 81.7804 88.5338 81.8282 88.5264C81.8869 88.5143 81.9478 88.5077 82.0111 88.5065C82.0697 88.4944 82.123 88.4847 82.1708 88.4772C82.2295 88.4652 82.2642 88.4568 82.2751 88.4523C82.3724 88.4111 82.5 88.3508 82.6577 88.2714C82.8154 88.192 82.9677 88.1149 83.1146 88.0401C83.2677 87.9499 83.3938 87.8711 83.4929 87.8037C83.5982 87.721 83.644 87.6634 83.6303 87.6309L83.5331 87.1747C83.4828 87.0557 83.4038 86.9743 83.296 86.9306C83.1883 86.8868 83.0803 86.8878 82.9721 86.9336C82.9397 86.9473 82.9172 86.9695 82.9047 87.0003L82.4323 87.1043L82.27 87.1729C82.1834 87.2095 82.0413 87.2504 81.8437 87.2957C81.6415 87.3301 81.4324 87.3484 81.2165 87.3504C81.0114 87.3478 80.8133 87.3167 80.6224 87.2571C80.4423 87.193 80.3179 87.0798 80.2493 86.9175C80.2082 86.8201 80.1916 86.7506 80.1995 86.709C80.2182 86.6629 80.2264 86.5765 80.2239 86.4501L80.1615 86.4382C80.1478 86.4057 80.1381 86.3525 80.1323 86.2784C80.1373 86.1998 80.1423 86.1211 80.1473 86.0425C80.1586 85.9485 80.1667 85.8622 80.1718 85.7835C80.1768 85.7049 80.1779 85.6471 80.175 85.61L80.4755 84.7371C80.488 84.7063 80.5073 84.6917 80.5336 84.6934C80.566 84.6797 80.5777 84.662 80.5685 84.6404L80.8389 84.2392L80.92 84.2049C80.92 84.2049 80.9479 84.1804 81.0037 84.1313L81.4076 83.865L81.5536 83.8033L81.5998 83.822C81.6631 83.8208 81.7217 83.8088 81.7758 83.7859C81.8407 83.7585 81.9111 83.7287 81.9868 83.6967L82.2627 83.5801C82.2843 83.571 82.3251 83.592 82.385 83.6432C82.4511 83.679 82.495 83.6924 82.5166 83.6832C82.6414 83.707 82.7508 83.7245 82.8449 83.7358C82.9389 83.747 83.0244 83.7683 83.1013 83.7995C83.1845 83.8154 83.2584 83.8543 83.3228 83.9163C83.3827 83.9675 83.4401 84.058 83.495 84.1879C83.5087 84.2203 83.4931 84.2588 83.4481 84.3033C83.4032 84.3478 83.3744 84.3854 83.362 84.4162L83.0698 84.5397C83.059 84.5442 83.0343 84.5611 82.9956 84.5902C82.9677 84.6147 82.929 84.6438 82.8794 84.6775C82.8407 84.7066 82.802 84.7357 82.7633 84.7648C82.7246 84.7939 82.6999 84.8108 82.689 84.8154L82.0886 85.0691C82.0898 85.1324 82.0409 85.1976 81.9418 85.265C81.849 85.317 81.7825 85.3706 81.7421 85.4259C81.6272 85.5765 81.5764 85.7127 81.5896 85.8346C81.5983 85.9457 81.6239 86.0816 81.6662 86.2422C81.8742 86.2818 82.0956 86.2775 82.3303 86.2294C82.5757 86.1766 82.7418 86.132 82.8283 86.0954L83.3214 86.04C83.65 86.0031 83.9028 86.043 84.0796 86.1595C84.2626 86.2607 84.4077 86.3779 84.515 86.5111L84.6529 86.7015L84.7077 86.8313C84.726 86.8746 84.7366 86.9147 84.7395 86.9518C84.7424 86.9888 84.7842 87.1178 84.8648 87.3387L84.8865 87.6164L84.8515 87.6695C84.8011 87.8821 84.7509 88.0499 84.7009 88.173C84.6664 88.3024 84.5531 88.4268 84.3613 88.5461C84.3505 88.5507 84.3388 88.5684 84.3263 88.5991C84.3247 88.6253 84.2959 88.663 84.2402 88.7121C84.1952 88.7566 84.1124 88.8171 83.9917 88.8936C83.8818 88.9655 83.7133 89.0495 83.4861 89.1455ZM80.4909 86.7198C80.5321 86.8171 80.5997 86.8715 80.6937 86.8827C80.7985 86.8894 80.8942 86.8745 80.9808 86.8379L80.8566 86.68L80.8429 86.6475C80.8109 86.5718 80.798 86.5262 80.8043 86.5108C80.8105 86.4954 80.7954 86.4445 80.7588 86.3579C80.7155 86.3762 80.6847 86.3637 80.6664 86.3204C80.6573 86.2988 80.6521 86.2563 80.6509 86.1931C80.6497 86.1299 80.6576 86.0883 80.6747 86.0683L80.7158 86.1657C80.7483 86.152 80.7531 86.1181 80.7302 86.064C80.7182 86.0053 80.7053 85.9597 80.6916 85.9273C80.6687 85.8732 80.6465 85.8507 80.6248 85.8598L80.6267 85.9547L80.5375 85.7437L80.505 85.7574C80.5079 85.7945 80.5046 85.8469 80.495 85.9147C80.4808 85.9717 80.4698 86.021 80.4619 86.0626C80.4722 86.1475 80.488 86.2301 80.5092 86.3104C80.5412 86.3861 80.557 86.4687 80.5565 86.5582C80.5577 86.6214 80.5398 86.6545 80.5028 86.6574C80.4766 86.6557 80.4726 86.6765 80.4909 86.7198ZM81.0677 84.7354C80.8838 84.8132 80.7589 84.9552 80.6931 85.1615C80.6336 85.3525 80.6133 85.5459 80.6324 85.7419L80.6392 85.7581C80.7258 85.7215 80.757 85.6446 80.7329 85.5273C80.7197 85.4053 80.7232 85.3082 80.7436 85.2358C80.7499 85.2204 80.7701 85.1928 80.8042 85.1528C80.8383 85.1129 80.8756 85.0653 80.916 85.01C80.9564 84.9547 80.9936 84.907 81.0277 84.8671C81.0681 84.8118 81.0923 84.7633 81.1002 84.7217L81.0677 84.7354Z" fill="#47A47D"/>
<path id="[Copy] Trista_5" d="M91.1755 79.4102L91.2029 79.501L91.1618 79.4212L90.927 79.8334C90.9252 79.8499 90.915 79.8655 90.8967 79.8801C90.8783 79.8948 90.8618 79.8929 90.8471 79.8745L90.7892 79.9432C90.723 80.0109 90.6339 80.0969 90.5218 80.2013C90.4188 80.2983 90.3159 80.3953 90.213 80.4923C90.1101 80.5893 90.0282 80.6845 89.9675 80.7779C89.9086 80.8548 89.8939 80.9117 89.9231 80.9484L89.9341 80.9622L89.9836 80.9678C89.9799 81.0008 89.9734 81.021 89.9642 81.0283C89.955 81.0356 89.9578 81.0484 89.9724 81.0668C89.987 81.0852 90.0145 81.1008 90.0548 81.1138C90.0914 81.1597 90.096 81.1937 90.0684 81.2156C90.0408 81.2376 90.0563 81.2853 90.1149 81.3588C90.1441 81.3955 90.1863 81.392 90.2415 81.348C90.2083 81.4195 90.2283 81.5012 90.3015 81.5931C90.36 81.6666 90.4067 81.6969 90.4416 81.6842L90.5927 81.789C90.5796 81.9046 90.5951 81.9899 90.639 82.045C90.6756 82.091 90.7058 82.1194 90.7296 82.1305C90.7881 82.204 90.8238 82.2582 90.8366 82.2931C90.8585 82.3206 90.8731 82.339 90.8805 82.3482C90.8805 82.3482 90.8795 82.3564 90.8777 82.3729C90.8777 82.3729 90.8886 82.3867 90.9106 82.4143L90.9353 82.4171C90.9939 82.4906 91.0487 82.5971 91.0998 82.7366C91.1527 82.8596 91.1773 82.9376 91.1736 82.9707L91.146 82.9926L91.1899 83.0477L91.2588 82.9928C91.2551 83.0259 91.2477 83.0543 91.2366 83.0781C91.2256 83.1019 91.2274 83.123 91.242 83.1414C91.2493 83.1506 91.2612 83.1561 91.2777 83.158L91.3742 83.0811L91.629 83.599L91.7061 83.5826C91.7758 83.5571 91.8612 83.5041 91.9623 83.4236C92.0377 83.3485 92.0965 83.2716 92.1389 83.1928C92.1739 83.1048 92.2245 83.027 92.2907 82.9592L92.332 82.9263C92.3688 82.897 92.4101 82.8641 92.4561 82.8275C92.5039 82.7744 92.5507 82.7296 92.5967 82.693L93.2444 82.1771C93.2536 82.1697 93.2838 82.1606 93.3352 82.1497C93.3793 82.1297 93.427 82.1142 93.4784 82.1033C93.539 82.0851 93.5904 82.0742 93.6326 82.0706C93.6748 82.067 93.6959 82.0652 93.6959 82.0652C93.7324 82.1111 93.7488 82.1882 93.7449 82.2964C93.7337 82.3955 93.7197 82.4817 93.7031 82.555L93.2366 83.2419L92.5032 83.9612C92.4297 84.0198 92.3543 84.1324 92.2769 84.2992C92.2068 84.4752 92.1075 84.6144 91.9788 84.7168L91.9349 84.6617L91.4748 84.9606C91.3152 84.9676 91.2051 84.9802 91.1445 84.9985C91.084 85.0167 91.0362 85.0322 91.0014 85.0449C90.9738 85.0669 90.9472 85.0806 90.9215 85.086C90.8958 85.0915 90.8417 85.0895 90.7591 85.0802C90.7372 85.0526 90.6933 84.9975 90.6274 84.9148C90.5542 84.823 90.4811 84.7311 90.4079 84.6392C90.3439 84.54 90.2872 84.45 90.2379 84.3692C90.1812 84.2792 90.1547 84.2177 90.1584 84.1847L90.6718 84.7443L90.7928 84.7831C90.6903 84.6545 90.5367 84.4615 90.3318 84.2043C90.136 83.9398 89.9166 83.6265 89.6734 83.2647L89.6815 83.3032C89.6797 83.3197 89.6558 83.3086 89.6101 83.27C89.5735 83.2241 89.5332 83.1736 89.4893 83.1184C89.4088 83.0174 89.3732 82.9632 89.3824 82.9559L89.3961 82.9449L89.5582 83.0636L89.0538 82.204L88.9986 82.2479L88.8889 82.1101L88.812 82.0137C88.7715 82.0759 88.7145 82.1364 88.641 82.1949C88.5676 82.2534 88.5169 82.3313 88.4892 82.4285L88.2108 82.6728L88.0896 82.7468L88.0426 82.8292L87.9684 82.8208C87.8949 82.8794 87.7564 82.8846 87.5528 82.8365C87.3493 82.7883 87.1964 82.7 87.0939 82.5714C87.05 82.5162 87.0722 82.431 87.1605 82.3156C87.2506 82.1837 87.3628 82.0418 87.4971 81.8898C87.6313 81.7379 87.7692 81.5905 87.9107 81.4477C88.0541 81.2884 88.1654 81.1547 88.2445 81.0467C88.2062 80.942 88.1368 80.8172 88.0362 80.672C87.9448 80.5196 87.8515 80.3837 87.7564 80.2642C87.6704 80.1375 87.5982 80.0373 87.5396 79.9639C87.4903 79.883 87.4802 79.861 87.5095 79.8978C87.5022 79.8886 87.4858 79.8491 87.4602 79.7793C87.4274 79.7004 87.3945 79.6214 87.3617 79.5425C87.3307 79.447 87.3024 79.3644 87.2769 79.2947C87.244 79.2157 87.2203 79.1671 87.2057 79.1487C87.1892 79.1468 87.1736 79.1367 87.159 79.1183C87.137 79.0908 87.1169 79.0467 87.0987 78.9861C87.0805 78.9256 87.0604 78.8815 87.0384 78.8539L87.055 78.8182C87.1193 78.767 87.2258 78.7122 87.3745 78.6538C87.5324 78.5881 87.6967 78.5398 87.8674 78.509C88.0307 78.469 88.1949 78.4583 88.36 78.477C88.5177 78.4865 88.6368 78.5418 88.7173 78.6429C88.7978 78.7439 88.847 78.8999 88.8649 79.1109C88.8828 79.3219 88.954 79.5055 89.0784 79.6617L89.2482 80.0445C89.4962 79.8469 89.7415 79.6365 89.9841 79.4132C90.2286 79.1734 90.4152 79.0023 90.5438 78.8998C90.6173 78.8413 90.688 78.8075 90.7559 78.7985C90.8329 78.7821 90.9117 78.8245 90.9922 78.9255L91.1618 79.4212L91.1755 79.4102ZM90.0597 84.0607L90.0017 84.1293C89.9871 84.111 89.9359 84.0466 89.848 83.9364C89.7694 83.8188 89.7283 83.739 89.7247 83.6968L90.0597 84.0607ZM90.9484 84.0735L91.0002 84.28L91.11 84.4178L91.0173 84.0186L90.9484 84.0735ZM90.7977 83.743C90.761 83.7723 90.7609 83.8099 90.7975 83.8558C90.8341 83.9018 90.8708 83.9101 90.9075 83.8808C90.9534 83.8443 90.9581 83.803 90.9215 83.7571C90.8849 83.7111 90.8437 83.7064 90.7977 83.743Z" fill="#47A47D"/>
<path id="[Copy] Trista_6" d="M99.4741 76.032C99.6386 75.8868 99.7307 75.8206 99.7504 75.8334L99.8737 75.9346C99.982 76.0051 100.088 76.0462 100.193 76.0581C100.245 76.064 100.282 76.0603 100.305 76.047C100.325 76.0598 100.306 76.1105 100.248 76.1991C100.207 76.2843 100.153 76.3892 100.085 76.5137C100.025 76.6284 99.9562 76.7449 99.8793 76.863C99.8187 76.9777 99.766 77.0695 99.7212 77.1385L99.6539 77.2418C99.513 77.4585 99.3601 77.6182 99.1951 77.721C99.0301 77.8239 98.8351 77.8652 98.6101 77.8449L98.5421 77.8848L98.3309 77.7895C98.2393 77.7579 98.1527 77.7296 98.071 77.7044C97.9892 77.6793 97.909 77.6411 97.8302 77.5899C97.7775 77.5416 97.7443 77.485 97.7306 77.42C97.7069 77.3486 97.69 77.2885 97.6797 77.2397C97.6659 77.1747 97.6556 77.126 97.6487 77.0935C97.6418 77.061 97.6288 77.0595 97.6095 77.089C97.5603 77.057 97.5155 76.9858 97.4752 76.8755C97.4348 76.7652 97.4041 76.6401 97.383 76.5003C97.3619 76.3605 97.3456 76.2238 97.3344 76.0904C97.3196 75.9407 97.3118 75.8235 97.3108 75.7388L97.4172 75.6398C97.43 75.6202 97.4522 75.5645 97.4838 75.4729C97.5119 75.3651 97.5321 75.2802 97.5444 75.2182L97.5312 74.9153C97.5662 74.84 97.5542 74.7831 97.4951 74.7447L97.6039 73.9958C97.5906 73.9731 97.5805 73.9456 97.5736 73.9131C97.5633 73.8643 97.5532 73.8367 97.5434 73.8303L96.9939 73.6411C96.9742 73.6283 96.9548 73.6366 96.9356 73.6662C96.9292 73.676 96.9309 73.6841 96.9407 73.6905C96.9407 73.6905 96.9375 73.6955 96.9311 73.7053L96.9119 73.7348C96.8799 73.7841 96.8321 73.8791 96.7685 74.0199C96.7114 74.1509 96.6559 74.2899 96.6022 74.4372C96.5485 74.5844 96.4963 74.7185 96.4455 74.8396C96.4011 74.9509 96.379 75.0065 96.379 75.0065C96.3824 75.0228 96.3777 75.0408 96.3649 75.0604C96.3265 75.1195 96.2553 75.1643 96.1514 75.1948C96.0539 75.2155 95.9645 75.2344 95.8833 75.2516L95.7282 75.3609L95.621 75.3963C95.6014 75.3835 95.5834 75.3788 95.5671 75.3822C95.541 75.3793 95.5149 75.3763 95.4888 75.3733L95.4106 75.3644C95.3613 75.3324 95.3683 75.2248 95.4313 75.0417C95.5008 74.8487 95.6009 74.6195 95.7314 74.3541C95.862 74.0888 96.012 73.8151 96.1815 73.533C96.3475 73.2346 96.5074 72.9673 96.6611 72.731L96.6899 72.6867C96.7796 72.5489 96.8779 72.4516 96.9847 72.3951C97.0818 72.3321 97.1839 72.2934 97.2913 72.2792C97.3888 72.2585 97.4897 72.2541 97.5941 72.266C97.6886 72.2714 97.7815 72.2688 97.8726 72.258L98.1236 72.4213C98.2319 72.4917 98.3206 72.5494 98.3895 72.5942C98.455 72.6228 98.5172 72.6563 98.5763 72.6947C98.6354 72.7331 98.6962 72.7797 98.7587 72.8344C98.8114 72.8826 98.8822 72.9568 98.9713 73.0567C99.0206 73.0888 99.0713 73.1077 99.1235 73.1137C99.1658 73.1132 99.2067 73.1258 99.2461 73.1514L99.2608 73.161L99.3738 73.2135L99.4299 73.4181L99.5909 73.3967L99.6566 73.5865C99.6763 73.5993 99.6945 73.6252 99.7112 73.6641C99.7343 73.6932 99.7558 73.7141 99.7755 73.7269L99.7998 73.7217L100.017 73.905L100.123 73.8061L100.202 73.8785L100.189 73.9959L100.267 74.0048L100.361 74.0868C100.418 74.1937 100.523 74.3114 100.678 74.4399C100.832 74.5685 100.946 74.6633 101.018 74.7244C101.031 74.7471 101.016 74.7929 100.971 74.8618C100.942 74.9273 100.902 74.9994 100.851 75.0782C100.816 75.1535 100.776 75.2256 100.731 75.2945C100.693 75.3536 100.674 75.3831 100.674 75.3831C100.616 75.4717 100.54 75.5345 100.446 75.5714C100.359 75.5985 100.267 75.6093 100.173 75.6038C100.075 75.5821 99.9802 75.5555 99.8886 75.5239C99.7936 75.4762 99.7116 75.4298 99.6427 75.385C99.4753 75.2761 99.3584 75.1651 99.292 75.0518C99.2221 74.9223 99.0936 74.7967 98.9066 74.675C98.815 74.6434 98.733 74.5971 98.6606 74.536C98.5848 74.4587 98.5181 74.4644 98.4605 74.553C98.4674 74.5855 98.476 74.6261 98.4863 74.6749C98.4932 74.7074 98.4951 74.7366 98.4922 74.7627C98.4759 74.7662 98.455 74.7876 98.4294 74.827C98.4166 74.8467 98.4025 74.9006 98.3872 74.9887C98.3719 75.0769 98.3584 75.1731 98.3465 75.2775C98.3347 75.3819 98.326 75.4813 98.3206 75.5759C98.3215 75.6606 98.3286 75.7142 98.3419 75.7369C98.3404 75.89 98.329 76.0368 98.3078 76.1771C98.293 76.3076 98.2976 76.4297 98.3217 76.5434L98.524 76.7171C98.5339 76.7235 98.5553 76.7444 98.5883 76.7799C98.6114 76.8089 98.6377 76.8331 98.6673 76.8523L98.6917 76.8471L98.6858 76.7592L98.7884 76.763C98.8431 76.7004 98.8929 76.6347 98.9377 76.5658C98.9727 76.4905 99.0096 76.4444 99.0485 76.4277C99.0549 76.4179 99.0581 76.413 99.0581 76.413C99.0547 76.3967 99.0562 76.3837 99.0626 76.3738C99.0946 76.3246 99.1576 76.2815 99.2517 76.2446C99.3522 76.1979 99.4216 76.145 99.46 76.0859C99.4729 76.0662 99.4775 76.0482 99.4741 76.032Z" fill="#47A47D"/>
</g>
</g>
<path id="&#229;&#174;&#163;" d="M83.6456 68.6639C83.6456 67.6861 84.4383 66.8935 85.4161 66.8935H118.713C119.691 66.8935 120.484 67.6861 120.484 68.6639V68.6639C120.484 69.6417 119.691 70.4344 118.713 70.4344H85.4161C84.4383 70.4344 83.6456 69.6417 83.6456 68.6639V68.6639Z" fill="#726DA8"/>
<path id="&#229;&#174;&#163;_2" d="M115.433 30.4307H88.6966C85.907 30.4307 83.6456 32.6921 83.6456 35.4817V38.5708C83.6456 39.6543 84.524 40.5326 85.6075 40.5326C86.691 40.5326 87.5693 39.6543 87.5693 38.5708V37.2261C87.5693 35.3999 89.0497 33.9195 90.8759 33.9195H113.147C114.974 33.9195 116.454 35.3999 116.454 37.2261V38.5178C116.454 39.6306 117.356 40.5326 118.469 40.5326C119.582 40.5326 120.484 39.6306 120.484 38.5178V35.4817C120.484 32.6921 118.222 30.4307 115.433 30.4307Z" fill="#726DA8"/>
<path id="Subtract" fill-rule="evenodd" clip-rule="evenodd" d="M92.5804 46.9676L92.303 46.5516C91.3994 45.1961 91.4433 43.4194 92.4128 42.1103C93.3682 40.8201 95.0221 40.2555 96.567 40.6919L98.3191 41.1869C99.9036 41.6346 101.603 41.3922 103 40.5195L103.178 40.4083C105.504 38.9543 108.542 39.4031 110.348 41.4677L110.758 41.9362C112.005 43.3613 112.266 45.3989 111.42 47.0926C110.786 48.3597 110.763 49.8461 111.356 51.1324L111.726 51.9327C112.4 53.3931 112.22 55.1054 111.258 56.3942C110.057 58.0027 107.917 58.5904 106.063 57.8211L105.257 57.4864C103.517 56.7645 101.51 57.1142 100.11 58.3742C99.0336 59.3425 97.5755 59.7844 96.144 59.5701C94.3377 59.2996 92.8368 58.0368 92.2616 56.3033L92.2247 56.1923C91.8219 54.9783 91.896 53.6564 92.432 52.495L92.9275 51.4213C93.594 49.9774 93.4625 48.2908 92.5804 46.9676ZM102.409 50.6983C103.957 50.6983 105.212 49.6227 105.212 48.2959C105.212 46.969 103.957 45.8934 102.409 45.8934C100.861 45.8934 99.6063 46.969 99.6063 48.2959C99.6063 49.6227 100.861 50.6983 102.409 50.6983Z" fill="#CDC1E7"/>
<path id="Ellipse 75" d="M102.472 25.5939C103.33 26.6559 103.095 27.9506 102.139 28.7228C101.184 29.4951 99.8686 29.4524 99.0105 28.3903C98.1525 27.3282 96.8357 24.1087 97.7915 23.3365C98.7474 22.5642 101.614 24.5318 102.472 25.5939Z" fill="#726DA8"/>
<g id="Group 784">
<path id="&#229;&#143;&#161;" d="M146.147 27.0464C146.147 26.2537 146.789 25.6111 147.582 25.6111H155.48C156.273 25.6111 156.916 26.2537 156.916 27.0464V27.0464C156.916 27.839 156.273 28.4816 155.48 28.4816H147.582C146.789 28.4816 146.147 27.839 146.147 27.0464V27.0464ZM144.066 24.5615C144.066 23.5559 144.881 22.7407 145.887 22.7407V22.7407C146.892 22.7407 147.707 23.5559 147.707 24.5615V30.5943C147.707 31.5999 146.892 32.4151 145.887 32.4151V32.4151C144.881 32.4151 144.066 31.5999 144.066 30.5943V24.5615ZM133.297 34.9135C133.297 32.7117 135.082 30.9268 137.283 30.9268H155.114C157.316 30.9268 159.101 32.7117 159.101 34.9135V34.9135V37.2354C159.101 38.1549 158.355 38.9002 157.436 38.9002V38.9002C156.517 38.9002 155.771 38.1549 155.771 37.2354V36.3753C155.771 34.9808 154.641 33.8504 153.246 33.8504H139.047C137.653 33.8504 136.522 34.9808 136.522 36.3753V37.2875C136.522 38.1782 135.8 38.9002 134.909 38.9002V38.9002C134.019 38.9002 133.297 38.1782 133.297 37.2875V34.9135Z" fill="#726DA8"/>
<path id="&#229;&#143;&#161;_2" d="M144.379 56.2614L148.848 39.5828C149.034 38.888 148.622 38.1739 147.927 37.9878C147.232 37.8016 146.518 38.2139 146.332 38.9086L141.863 55.5873C141.677 56.282 142.089 56.9961 142.784 57.1823C143.479 57.3684 144.193 56.9561 144.379 56.2614Z" fill="#47A47D"/>
<path id="Subtract_2" fill-rule="evenodd" clip-rule="evenodd" d="M134.692 60.5815L134.415 60.1655C133.511 58.8101 133.555 57.0334 134.524 55.7242C135.48 54.4341 137.134 53.8694 138.679 54.3059L140.431 54.8009C142.015 55.2485 143.715 55.0061 145.111 54.1335L145.289 54.0223C147.616 52.5683 150.653 53.0171 152.46 55.0816L152.87 55.5501C154.117 56.9752 154.378 59.0128 153.531 60.7065C152.898 61.9736 152.874 63.46 153.468 64.7463L153.838 65.5467C154.512 67.0071 154.332 68.7193 153.37 70.0082C152.169 71.6166 150.029 72.2044 148.175 71.4351L147.368 71.1004C145.629 70.3785 143.621 70.7281 142.221 71.9882C141.145 72.9565 139.687 73.3983 138.256 73.184C136.449 72.9136 134.949 71.6507 134.373 69.9172L134.336 69.8062C133.934 68.5922 134.008 67.2704 134.544 66.109L135.039 65.0353C135.706 63.5913 135.574 61.9048 134.692 60.5815ZM144.521 65.1137C146.069 65.1137 147.323 64.0381 147.323 62.7113C147.323 61.3844 146.069 60.3088 144.521 60.3088C142.973 60.3088 141.718 61.3844 141.718 62.7113C141.718 64.0381 142.973 65.1137 144.521 65.1137Z" fill="#CDC1E7"/>
<path id="&#229;&#174;&#163;_3" d="M161.141 55.2639C161.665 54.551 162.667 54.3976 163.38 54.9213L174.588 63.1546C175.301 63.6783 175.454 64.6808 174.931 65.3937V65.3937C174.407 66.1066 173.405 66.26 172.692 65.7363L161.484 57.5029C160.771 56.9792 160.617 55.9768 161.141 55.2639V55.2639Z" fill="#726DA8"/>
<path id="Ellipse 74" d="M141.193 51.7394C139.967 52.3394 138.876 52.066 138.483 51.2626C138.09 50.4592 138.543 49.4302 139.77 48.8301C140.996 48.23 144.309 47.4188 144.702 48.2221C145.095 49.0255 142.42 51.1393 141.193 51.7394Z" fill="#47A47D"/>
<path id="Ellipse 75_2" d="M150.219 47.7696C150.834 48.7598 150.522 49.8178 149.659 50.3539C148.796 50.8899 147.709 50.701 147.094 49.7108C146.479 48.7206 145.679 45.8684 146.542 45.3323C147.405 44.7963 149.603 46.7794 150.219 47.7696Z" fill="#47A47D"/>
<path id="Ellipse 74_2" d="M144.832 43.4225C143.87 43.8932 142.931 43.5076 142.519 42.6665C142.108 41.8254 142.38 40.8472 143.342 40.3765C144.304 39.9058 146.986 39.4411 147.397 40.2823C147.809 41.1234 145.794 42.9518 144.832 43.4225Z" fill="#47A47D"/>
<path id="Vector 135 (Stroke)" fill-rule="evenodd" clip-rule="evenodd" d="M166.318 52.4339C164.794 52.4458 163.125 52.5968 161.564 52.7628C160.684 52.8564 159.896 52.2192 159.802 51.3396C159.708 50.46 160.346 49.6711 161.225 49.5775C162.801 49.4098 164.602 49.2439 166.294 49.2307C167.942 49.2179 169.681 49.3448 171.041 49.8801C171.738 50.1547 172.445 50.5784 172.961 51.2503C173.502 51.9553 173.735 52.8057 173.672 53.7201C173.557 55.3963 172.451 57.2825 170.619 59.42L170.592 59.4519L162.554 67.891C161.944 68.5315 160.931 68.5563 160.29 67.9462C159.649 67.3362 159.625 66.3223 160.235 65.6818L168.214 57.3039C169.963 55.2563 170.438 54.0652 170.477 53.5003C170.491 53.2935 170.444 53.2321 170.42 53.2019C170.372 53.1387 170.229 53.0032 169.867 52.8607C169.108 52.5617 167.886 52.4217 166.318 52.4339Z" fill="#726DA8"/>
</g>
</g>
</g>
</svg>
