<svg width="71" height="88" viewBox="0 0 71 88" fill="none" xmlns="http://www.w3.org/2000/svg">
<g id="&#229;&#176;&#143;&#231;&#174;&#173;&#233;&#160;&#173;">
<g id="Group 8">
<path id="Polygon 1" d="M27.8634 25.9725C28.3262 24.6228 30.013 24.1781 31.0812 25.124L58.4214 49.3356C59.6174 50.3947 59.1502 52.3594 57.6054 52.7668L18.4185 63.1C16.8737 63.5074 15.4984 62.0285 16.0167 60.5173L27.8634 25.9725Z" fill="#49434A"/>
<path id="Rectangle 16" d="M28.3342 57.8921C28.1973 56.8909 28.8287 55.9449 29.8058 55.6872L44.2073 51.8896C45.1697 51.6359 46.1722 52.1283 46.5595 53.0451L55.7213 74.7261C56.1951 75.8473 55.5659 77.1281 54.389 77.4385L34.0061 82.8132C32.8448 83.1195 31.6773 82.3403 31.5146 81.1503L28.3342 57.8921Z" fill="#49434A"/>
</g>
<path id="Line 2" d="M2.81226 16.2618L16.8761 23.7073" stroke="#49434A" stroke-width="4" stroke-linecap="round"/>
<path id="Line 3" d="M18.3457 5.28709L26.5685 18.9111" stroke="#49434A" stroke-width="4" stroke-linecap="round"/>
<path id="Line 4" d="M41.0608 2.28069L38.4154 17.9724" stroke="#49434A" stroke-width="4" stroke-linecap="round"/>
</g>
</svg>
