<svg width="27" height="28" viewBox="0 0 27 28" fill="none" xmlns="http://www.w3.org/2000/svg">
<path id="Star 2" d="M10.6737 2.72865C11.6252 0.0818181 15.3685 0.0818129 16.32 2.72865L18.0153 7.44461C18.3114 8.26836 18.9526 8.92168 19.7706 9.23326L24.5931 11.0701C27.1693 12.0514 27.1693 15.6959 24.5931 16.6771L19.7706 18.514C18.9526 18.8256 18.3114 19.4789 18.0153 20.3026L16.32 25.0186C15.3685 27.6654 11.6252 27.6654 10.6737 25.0186L8.97839 20.3026C8.68227 19.4789 8.04113 18.8256 7.2231 18.514L2.40061 16.6771C-0.175612 15.6959 -0.175612 12.0514 2.40061 11.0701L7.2231 9.23326C8.04113 8.92168 8.68227 8.26836 8.97839 7.44461L10.6737 2.72865Z" fill="#FED684"/>
</svg>
