<svg width="133" height="31" viewBox="0 0 133 31" fill="none" xmlns="http://www.w3.org/2000/svg">
<g id="Vector">
<path d="M12.4309 2.74533C13.3974 0.133477 17.0916 0.133471 18.0581 2.74533L20.2633 8.70504C20.5672 9.5262 21.2146 10.1736 22.0358 10.4775L27.9955 12.6828C30.6074 13.6492 30.6074 17.3434 27.9955 18.3099L22.0358 20.5152C21.2146 20.819 20.5672 21.4665 20.2633 22.2876L18.0581 28.2473C17.0916 30.8592 13.3974 30.8592 12.4309 28.2473L10.2257 22.2876C9.9218 21.4665 9.27436 20.819 8.45321 20.5152L2.4935 18.3099C-0.118354 17.3434 -0.11836 13.6492 2.49349 12.6828L8.45321 10.4775C9.27436 10.1736 9.9218 9.5262 10.2257 8.70504L12.4309 2.74533Z" fill="#FECEF0"/>
<path d="M63.9477 2.74533C64.9142 0.133477 68.6083 0.133471 69.5748 2.74533L71.7801 8.70504C72.084 9.5262 72.7314 10.1736 73.5526 10.4775L79.5123 12.6828C82.1241 13.6492 82.1241 17.3434 79.5123 18.3099L73.5526 20.5152C72.7314 20.819 72.084 21.4665 71.7801 22.2876L69.5748 28.2473C68.6083 30.8592 64.9142 30.8592 63.9477 28.2473L61.7424 22.2876C61.4386 21.4665 60.7911 20.819 59.97 20.5152L54.0103 18.3099C51.3984 17.3434 51.3984 13.6492 54.0103 12.6828L59.97 10.4775C60.7911 10.1736 61.4386 9.5262 61.7424 8.70504L63.9477 2.74533Z" fill="#FED684"/>
<path d="M115.464 2.74533C116.431 0.133477 120.125 0.133471 121.092 2.74533L123.297 8.70504C123.601 9.5262 124.248 10.1736 125.069 10.4775L131.029 12.6828C133.641 13.6492 133.641 17.3434 131.029 18.3099L125.069 20.5152C124.248 20.819 123.601 21.4665 123.297 22.2876L121.092 28.2473C120.125 30.8592 116.431 30.8592 115.464 28.2473L113.259 22.2876C112.955 21.4665 112.308 20.819 111.487 20.5152L105.527 18.3099C102.915 17.3434 102.915 13.6492 105.527 12.6828L111.487 10.4775C112.308 10.1736 112.955 9.5262 113.259 8.70504L115.464 2.74533Z" fill="#C0E6E9"/>
</g>
</svg>
