<svg width="57" height="51" viewBox="0 0 57 51" fill="none" xmlns="http://www.w3.org/2000/svg">
<g id="Group 5">
<g id="Group 4">
<path id="Subtract" fill-rule="evenodd" clip-rule="evenodd" d="M22.7894 44.8166C35.0266 44.8166 44.9467 34.8964 44.9467 22.6593C44.9467 10.4221 35.0266 0.501938 22.7894 0.501938C10.5523 0.501938 0.63208 10.4221 0.63208 22.6593C0.63208 34.8964 10.5523 44.8166 22.7894 44.8166ZM22.4537 38.1022C30.7972 38.1022 37.5609 31.3385 37.5609 22.995C37.5609 14.6515 30.7972 7.88771 22.4537 7.88771C14.1102 7.88771 7.34642 14.6515 7.34642 22.995C7.34642 31.3385 14.1102 38.1022 22.4537 38.1022Z" fill="#8BA3E2"/>
<path id="Line 1 (Stroke)" fill-rule="evenodd" clip-rule="evenodd" d="M48.4441 47.992L35.6303 37.149L40.835 30.9983L53.6488 41.8413C55.3472 43.2785 55.559 45.8205 54.1218 47.519C52.6846 49.2174 50.1426 49.4292 48.4441 47.992Z" fill="#8BA3E2"/>
</g>
</g>
</svg>
